# xmcd
#
# Track frame offsets:
# 150
# 18666
# 37076
# 54863
# 64459
# 74458
# 80568
# 99213
#
# Disc length: 1348 seconds
#
# Revision: 0
# Processed by: cddbd v1.5.2PL0 Copyright (c) Steve Scherf et al.
# Submitted via: Audion 3.0.2 (http://www.panic.com/audion/)
#
DISCID=6a054208
DTITLE=KMFDM - 2002-06-03 San
DYEAR=1900
DGENRE=
TTITLE0=()
TTITLE1=Skurk
TTITLE2=Sturm and Drang
TTITLE3=()
TTITLE4=()
TTITLE5=()
TTITLE6=Godlike
TTITLE7=()
EXTD=
EXTT0=
EXTT1=
EXTT2=
EXTT3=
EXTT4=
EXTT5=
EXTT6=
EXTT7=
PLAYORDER=
